<svg width="178" height="177" viewBox="0 0 178 177" fill="none" xmlns="http://www.w3.org/2000/svg">
<g clip-path="url(#clip0_9_137)" filter="url(#filter0_d_9_137)">
<path d="M125.447 49.0513H52.8162V121.682H125.447V49.0513Z" fill="#2E2D75"/>
<path d="M166.544 15.3317H161.018V24.2271H151.647V12.4475H166.433V6.49699H151.647V0H145.687V6.49699H45.3376V12.4475H136.589V33.2338H130.557V24.8647H124.597V33.2338H119.557V24.8647H113.607V33.2338H108.567V24.8647H102.616V33.2338H86.4144V15.3722H80.4537V39.2451H86.4144V39.1945H136.589V39.2451H142.55V39.1945H142.742V33.2338H142.55V12.4475H145.687V24.2271V30.6229H166.493V29.8841H166.544V15.3317Z" fill="url(#paint0_linear_9_137)"/>
<path d="M69.4331 33.7095H52.1382V15.3722H46.1776V39.2451H48.8593H72.7322H75.3938V15.3722H69.4331V33.7095Z" fill="url(#paint1_linear_9_137)"/>
<path d="M151.83 32.8695H146.233V39.1135H151.83V32.8695Z" fill="url(#paint2_linear_9_137)"/>
<path d="M100.329 15.6656H94.7329V21.9096H100.329V15.6656Z" fill="url(#paint3_linear_9_137)"/>
<path d="M107.919 15.6656H102.323V21.9096H107.919V15.6656Z" fill="url(#paint4_linear_9_137)"/>
<path d="M63.3915 15.6656H57.7952V21.9096H63.3915V15.6656Z" fill="url(#paint5_linear_9_137)"/>
<path d="M159.075 32.8695H153.479V39.1135H159.075V32.8695Z" fill="url(#paint6_linear_9_137)"/>
<path d="M166.321 32.8695H160.725V39.1135H166.321V32.8695Z" fill="url(#paint7_linear_9_137)"/>
<path d="M158.296 162.192V156.667H149.401V147.296H161.18V162.081H167.131V147.296H173.628V141.335H167.131V40.9857H161.18V132.237H140.394V126.195H148.763V120.245H140.394V115.205H148.763V109.255H140.394V104.215H148.763V98.2544H140.394V82.0625H158.256V76.1018H134.383V82.0625H134.433V132.237H134.383V138.198H134.433V138.39H140.394V138.198H161.18V141.335H149.401V141.325H143.005V162.131H143.744V162.192H158.296Z" fill="#2F80A5"/>
<path d="M139.918 65.0812V47.7863H158.256V41.8257H134.383V44.5074V68.3803V71.0419H158.256V65.0812H139.918Z" fill="url(#paint8_linear_9_137)"/>
<path d="M140.768 141.881H134.524V147.478H140.768V141.881Z" fill="url(#paint9_linear_9_137)"/>
<path d="M157.962 90.3709H151.718V95.9673H157.962V90.3709Z" fill="url(#paint10_linear_9_137)"/>
<path d="M157.962 97.9609H151.718V103.557H157.962V97.9609Z" fill="url(#paint11_linear_9_137)"/>
<path d="M157.962 53.4433H151.718V59.0396H157.962V53.4433Z" fill="url(#paint12_linear_9_137)"/>
<path d="M140.768 149.127H134.524V154.724H140.768V149.127Z" fill="url(#paint13_linear_9_137)"/>
<path d="M140.768 156.373H134.524V161.969H140.768V156.373Z" fill="url(#paint14_linear_9_137)"/>
<path d="M10.9298 153.428H16.4553V144.543H25.8264V156.312H11.0412V162.273H25.8264V168.77H31.787V162.273H132.136V156.312H40.8848V135.526H46.9264V143.905H52.8769V135.526H57.9167V143.905H63.8672V135.526H68.9069V143.905H74.8675V135.526H91.0594V153.398H97.0201V129.525H91.0594V129.576H40.8848V129.525H34.9242V129.576H34.7319V135.526H34.9242V156.312H31.787V144.543H31.7971V138.147H10.9906V138.886H10.9298V153.428Z" fill="url(#paint15_linear_9_137)"/>
<path d="M108.041 135.061H125.336V153.398H131.296V129.525H128.614H104.742H102.08V153.398H108.041V135.061Z" fill="url(#paint16_linear_9_137)"/>
<path d="M31.2405 129.656H25.6442V135.9H31.2405V129.656Z" fill="url(#paint17_linear_9_137)"/>
<path d="M82.751 146.86H77.1546V153.104H82.751V146.86Z" fill="url(#paint18_linear_9_137)"/>
<path d="M75.161 146.86H69.5647V153.104H75.161V146.86Z" fill="url(#paint19_linear_9_137)"/>
<path d="M119.679 146.86H114.082V153.104H119.679V146.86Z" fill="url(#paint20_linear_9_137)"/>
<path d="M23.9947 129.656H18.3983V135.9H23.9947V129.656Z" fill="url(#paint21_linear_9_137)"/>
<path d="M16.7488 129.656H11.1525V135.9H16.7488V129.656Z" fill="url(#paint22_linear_9_137)"/>
<path d="M19.7038 6.20352V11.729H28.5992V21.1102H16.8196V6.31484H10.8691V21.1102H4.37213V27.0607H10.8691V127.41H16.8196V36.1585H37.606V42.2001H29.2368V48.1506H37.606V53.1903H29.2368V59.151H37.606V64.1806H29.2368V70.1412H37.606V86.3331H19.7443V92.2937H43.6172V86.3331H43.5666V36.1585H43.6172V30.1979H43.5666V30.0157H37.606V30.1979H16.8196V27.0607H28.5992V27.0708H34.995V6.26424H34.2563V6.20352H19.7038Z" fill="url(#paint23_linear_9_137)"/>
<path d="M38.0816 103.314V120.609H19.7443V126.57H43.6172V123.888V100.015V97.3638H19.7443V103.314H38.0816Z" fill="url(#paint24_linear_9_137)"/>
<path d="M43.4856 20.9179H37.2416V26.5142H43.4856V20.9179Z" fill="url(#paint25_linear_9_137)"/>
<path d="M26.2818 72.4283H20.0378V78.0246H26.2818V72.4283Z" fill="url(#paint26_linear_9_137)"/>
<path d="M26.2818 64.8384H20.0378V70.4347H26.2818V64.8384Z" fill="url(#paint27_linear_9_137)"/>
<path d="M26.2818 109.356H20.0378V114.952H26.2818V109.356Z" fill="url(#paint28_linear_9_137)"/>
<path d="M43.4856 13.672H37.2416V19.2683H43.4856V13.672Z" fill="url(#paint29_linear_9_137)"/>
<path d="M43.4856 6.42616H37.2416V12.0225H43.4856V6.42616Z" fill="url(#paint30_linear_9_137)"/>
<path d="M119.254 68.9673H113.516V107.494H119.254V68.9673Z" fill="white"/>
<path d="M70.3743 108.475L69.2611 107.565V76.3042H63.5231V76.3548H57.9976V82.0928H63.5231V110.297H63.6648L70.3642 115.074L70.3743 115.064H76.1123V76.3042H70.3743V108.475Z" fill="white"/>
<path d="M119.507 109.295H98.872L83.8642 94.2873V76.3042H78.1262V115.064H83.8642V102.393L96.4837 115.013H96.4938C96.4938 115.023 96.504 115.033 96.5141 115.033H119.517C119.537 115.033 119.547 115.023 119.547 115.003V109.326C119.527 109.305 119.517 109.295 119.507 109.295Z" fill="white"/>
<path d="M83.5302 69.1292H58.4024V74.8672H83.5302V69.1292Z" fill="white"/>
<path d="M69.9999 67.7023H75.7379V67.6922H119.092V61.9542H75.7379V54.4654H75.6974H57.8964V60.2034H69.9999V67.7023Z" fill="white"/>
<path d="M111.633 69.1393H84.2993V74.8773H111.633V69.1393Z" fill="white"/>
<path d="M105.824 54.9006H100.117V60.4969H105.824V54.9006Z" fill="white"/>
<path d="M90.6445 77.1543H84.9369V82.7506H90.6445V77.1543Z" fill="white"/>
<path d="M90.6445 84.2383H84.9369V89.8346H90.6445V84.2383Z" fill="white"/>
<path d="M97.7285 95.1273H92.0208V100.724H97.7285V95.1273Z" fill="white"/>
<path d="M105.318 95.1273H99.6107V100.724H105.318V95.1273Z" fill="white"/>
<path d="M105.318 102.717H99.6107V108.314H105.318V102.717Z" fill="white"/>
<path d="M112.412 54.9006H106.705V60.4969H112.412V54.9006Z" fill="white"/>
<path d="M119.001 54.9006H113.293V60.4969H119.001V54.9006Z" fill="white"/>
</g>
<defs>
<filter id="filter0_d_9_137" x="0.372131" y="0" width="177.256" height="176.77" filterUnits="userSpaceOnUse" color-interpolation-filters="sRGB">
<feFlood flood-opacity="0" result="BackgroundImageFix"/>
<feColorMatrix in="SourceAlpha" type="matrix" values="0 0 0 0 0 0 0 0 0 0 0 0 0 0 0 0 0 0 127 0" result="hardAlpha"/>
<feOffset dy="4"/>
<feGaussianBlur stdDeviation="2"/>
<feComposite in2="hardAlpha" operator="out"/>
<feColorMatrix type="matrix" values="0 0 0 0 0 0 0 0 0 0 0 0 0 0 0 0 0 0 0.25 0"/>
<feBlend mode="normal" in2="BackgroundImageFix" result="effect1_dropShadow_9_137"/>
<feBlend mode="normal" in="SourceGraphic" in2="effect1_dropShadow_9_137" result="shape"/>
</filter>
<linearGradient id="paint0_linear_9_137" x1="105.941" y1="0" x2="105.941" y2="39.2451" gradientUnits="userSpaceOnUse">
<stop stop-color="#2F80A5"/>
<stop offset="1" stop-color="#04577D"/>
</linearGradient>
<linearGradient id="paint1_linear_9_137" x1="60.7857" y1="15.3722" x2="60.7857" y2="39.2451" gradientUnits="userSpaceOnUse">
<stop stop-color="#2F80A5"/>
<stop offset="1" stop-color="#04577D"/>
</linearGradient>
<linearGradient id="paint2_linear_9_137" x1="149.031" y1="32.8695" x2="149.031" y2="39.1135" gradientUnits="userSpaceOnUse">
<stop stop-color="#2F80A5"/>
<stop offset="1" stop-color="#04577D"/>
</linearGradient>
<linearGradient id="paint3_linear_9_137" x1="97.5311" y1="15.6656" x2="97.5311" y2="21.9096" gradientUnits="userSpaceOnUse">
<stop stop-color="#2F80A5"/>
<stop offset="1" stop-color="#04577D"/>
</linearGradient>
<linearGradient id="paint4_linear_9_137" x1="105.121" y1="15.6656" x2="105.121" y2="21.9096" gradientUnits="userSpaceOnUse">
<stop stop-color="#2F80A5"/>
<stop offset="1" stop-color="#04577D"/>
</linearGradient>
<linearGradient id="paint5_linear_9_137" x1="60.5934" y1="15.6656" x2="60.5934" y2="21.9096" gradientUnits="userSpaceOnUse">
<stop stop-color="#2F80A5"/>
<stop offset="1" stop-color="#04577D"/>
</linearGradient>
<linearGradient id="paint6_linear_9_137" x1="156.277" y1="32.8695" x2="156.277" y2="39.1135" gradientUnits="userSpaceOnUse">
<stop stop-color="#2F80A5"/>
<stop offset="1" stop-color="#04577D"/>
</linearGradient>
<linearGradient id="paint7_linear_9_137" x1="163.523" y1="32.8695" x2="163.523" y2="39.1135" gradientUnits="userSpaceOnUse">
<stop stop-color="#2F80A5"/>
<stop offset="1" stop-color="#04577D"/>
</linearGradient>
<linearGradient id="paint8_linear_9_137" x1="146.319" y1="41.8257" x2="146.319" y2="71.0419" gradientUnits="userSpaceOnUse">
<stop stop-color="#2F80A5"/>
<stop offset="1" stop-color="#04577D"/>
</linearGradient>
<linearGradient id="paint9_linear_9_137" x1="137.646" y1="141.881" x2="137.646" y2="147.478" gradientUnits="userSpaceOnUse">
<stop stop-color="#2F80A5"/>
<stop offset="1" stop-color="#04577D"/>
</linearGradient>
<linearGradient id="paint10_linear_9_137" x1="154.84" y1="90.3709" x2="154.84" y2="95.9673" gradientUnits="userSpaceOnUse">
<stop stop-color="#2F80A5"/>
<stop offset="1" stop-color="#04577D"/>
</linearGradient>
<linearGradient id="paint11_linear_9_137" x1="154.84" y1="97.9609" x2="154.84" y2="103.557" gradientUnits="userSpaceOnUse">
<stop stop-color="#2F80A5"/>
<stop offset="1" stop-color="#04577D"/>
</linearGradient>
<linearGradient id="paint12_linear_9_137" x1="154.84" y1="53.4433" x2="154.84" y2="59.0396" gradientUnits="userSpaceOnUse">
<stop stop-color="#2F80A5"/>
<stop offset="1" stop-color="#04577D"/>
</linearGradient>
<linearGradient id="paint13_linear_9_137" x1="137.646" y1="149.127" x2="137.646" y2="154.724" gradientUnits="userSpaceOnUse">
<stop stop-color="#2F80A5"/>
<stop offset="1" stop-color="#04577D"/>
</linearGradient>
<linearGradient id="paint14_linear_9_137" x1="137.646" y1="156.373" x2="137.646" y2="161.969" gradientUnits="userSpaceOnUse">
<stop stop-color="#2F80A5"/>
<stop offset="1" stop-color="#04577D"/>
</linearGradient>
<linearGradient id="paint15_linear_9_137" x1="71.533" y1="129.525" x2="71.533" y2="168.77" gradientUnits="userSpaceOnUse">
<stop stop-color="#2F80A5"/>
<stop offset="1" stop-color="#04577D"/>
</linearGradient>
<linearGradient id="paint16_linear_9_137" x1="116.688" y1="129.525" x2="116.688" y2="153.398" gradientUnits="userSpaceOnUse">
<stop stop-color="#2F80A5"/>
<stop offset="1" stop-color="#04577D"/>
</linearGradient>
<linearGradient id="paint17_linear_9_137" x1="28.4424" y1="129.656" x2="28.4424" y2="135.9" gradientUnits="userSpaceOnUse">
<stop stop-color="#2F80A5"/>
<stop offset="1" stop-color="#04577D"/>
</linearGradient>
<linearGradient id="paint18_linear_9_137" x1="79.9528" y1="146.86" x2="79.9528" y2="153.104" gradientUnits="userSpaceOnUse">
<stop stop-color="#2F80A5"/>
<stop offset="1" stop-color="#04577D"/>
</linearGradient>
<linearGradient id="paint19_linear_9_137" x1="72.3629" y1="146.86" x2="72.3629" y2="153.104" gradientUnits="userSpaceOnUse">
<stop stop-color="#2F80A5"/>
<stop offset="1" stop-color="#04577D"/>
</linearGradient>
<linearGradient id="paint20_linear_9_137" x1="116.88" y1="146.86" x2="116.88" y2="153.104" gradientUnits="userSpaceOnUse">
<stop stop-color="#2F80A5"/>
<stop offset="1" stop-color="#04577D"/>
</linearGradient>
<linearGradient id="paint21_linear_9_137" x1="21.1965" y1="129.656" x2="21.1965" y2="135.9" gradientUnits="userSpaceOnUse">
<stop stop-color="#2F80A5"/>
<stop offset="1" stop-color="#04577D"/>
</linearGradient>
<linearGradient id="paint22_linear_9_137" x1="13.9506" y1="129.656" x2="13.9506" y2="135.9" gradientUnits="userSpaceOnUse">
<stop stop-color="#2F80A5"/>
<stop offset="1" stop-color="#04577D"/>
</linearGradient>
<linearGradient id="paint23_linear_9_137" x1="23.9947" y1="6.20352" x2="23.9947" y2="127.41" gradientUnits="userSpaceOnUse">
<stop stop-color="#2F80A5"/>
<stop offset="1" stop-color="#04577D"/>
</linearGradient>
<linearGradient id="paint24_linear_9_137" x1="31.6807" y1="97.3638" x2="31.6807" y2="126.57" gradientUnits="userSpaceOnUse">
<stop stop-color="#2F80A5"/>
<stop offset="1" stop-color="#04577D"/>
</linearGradient>
<linearGradient id="paint25_linear_9_137" x1="40.3636" y1="20.9179" x2="40.3636" y2="26.5142" gradientUnits="userSpaceOnUse">
<stop stop-color="#2F80A5"/>
<stop offset="1" stop-color="#04577D"/>
</linearGradient>
<linearGradient id="paint26_linear_9_137" x1="23.1598" y1="72.4283" x2="23.1598" y2="78.0246" gradientUnits="userSpaceOnUse">
<stop stop-color="#2F80A5"/>
<stop offset="1" stop-color="#04577D"/>
</linearGradient>
<linearGradient id="paint27_linear_9_137" x1="23.1598" y1="64.8384" x2="23.1598" y2="70.4347" gradientUnits="userSpaceOnUse">
<stop stop-color="#2F80A5"/>
<stop offset="1" stop-color="#04577D"/>
</linearGradient>
<linearGradient id="paint28_linear_9_137" x1="23.1598" y1="109.356" x2="23.1598" y2="114.952" gradientUnits="userSpaceOnUse">
<stop stop-color="#2F80A5"/>
<stop offset="1" stop-color="#04577D"/>
</linearGradient>
<linearGradient id="paint29_linear_9_137" x1="40.3636" y1="13.672" x2="40.3636" y2="19.2683" gradientUnits="userSpaceOnUse">
<stop stop-color="#2F80A5"/>
<stop offset="1" stop-color="#04577D"/>
</linearGradient>
<linearGradient id="paint30_linear_9_137" x1="40.3636" y1="6.42616" x2="40.3636" y2="12.0225" gradientUnits="userSpaceOnUse">
<stop stop-color="#2F80A5"/>
<stop offset="1" stop-color="#04577D"/>
</linearGradient>
<clipPath id="clip0_9_137">
<rect width="169.256" height="168.77" fill="white" transform="translate(4.37213)"/>
</clipPath>
</defs>
</svg>
