<svg width="34" height="34" viewBox="0 0 34 34" fill="none" xmlns="http://www.w3.org/2000/svg">
<path d="M11.8721 12.5421C12.8581 14.5957 14.2022 16.5204 15.9044 18.2227C17.6066 19.9249 19.5314 21.269 21.585 22.255C21.7617 22.3398 21.85 22.3822 21.9617 22.4148C22.3589 22.5306 22.8466 22.4474 23.183 22.2066C23.2776 22.1388 23.3586 22.0578 23.5205 21.8959C24.0158 21.4006 24.2634 21.153 24.5125 20.9911C25.4516 20.3805 26.6622 20.3805 27.6013 20.9911C27.8503 21.153 28.098 21.4006 28.5932 21.8959L28.8693 22.172C29.6222 22.9248 29.9986 23.3013 30.2031 23.7056C30.6098 24.5096 30.6098 25.4592 30.2031 26.2632C29.9986 26.6675 29.6222 27.0439 28.8693 27.7968L28.646 28.0201C27.8957 28.7704 27.5205 29.1456 27.0105 29.4321C26.4445 29.75 25.5655 29.9786 24.9164 29.9767C24.3313 29.9749 23.9315 29.8615 23.1319 29.6345C18.8346 28.4148 14.7796 26.1134 11.3966 22.7305C8.01363 19.3475 5.71229 15.2925 4.49258 10.9952C4.26562 10.1956 4.15214 9.79573 4.1504 9.21073C4.14847 8.56158 4.37707 7.68255 4.695 7.11658C4.98151 6.60654 5.35666 6.23139 6.10696 5.48109L6.33028 5.25777C7.08316 4.5049 7.45959 4.12846 7.86388 3.92397C8.66793 3.51729 9.61747 3.51729 10.4215 3.92397C10.8258 4.12846 11.2022 4.5049 11.9551 5.25777L12.2312 5.53384C12.7265 6.02911 12.9741 6.27675 13.136 6.52577C13.7466 7.46486 13.7466 8.67552 13.136 9.61462C12.9741 9.86363 12.7265 10.1113 12.2312 10.6065C12.0692 10.7685 11.9883 10.8495 11.9205 10.9441C11.6796 11.2805 11.5965 11.7682 11.7123 12.1653C11.7448 12.2771 11.7872 12.3654 11.8721 12.5421Z" stroke="white" stroke-width="2" stroke-linecap="round" stroke-linejoin="round"/>
</svg>
