<svg width="34" height="34" viewBox="0 0 34 34" fill="none" xmlns="http://www.w3.org/2000/svg">
<path d="M29.75 14.1666H4.25M22.6667 2.83331V8.49998M11.3333 2.83331V8.49998M12.75 22.6666L15.5833 25.5L21.9583 19.125M11.05 31.1666H22.95C25.3302 31.1666 26.5203 31.1666 27.4295 30.7034C28.2291 30.296 28.8793 29.6458 29.2868 28.8461C29.75 27.937 29.75 26.7469 29.75 24.3666V12.4666C29.75 10.0864 29.75 8.89631 29.2868 7.98719C28.8793 7.1875 28.2291 6.53733 27.4295 6.12987C26.5203 5.66665 25.3302 5.66665 22.95 5.66665H11.05C8.66978 5.66665 7.47967 5.66665 6.57054 6.12987C5.77085 6.53733 5.12068 7.1875 4.71322 7.98719C4.25 8.89631 4.25 10.0864 4.25 12.4666V24.3666C4.25 26.7469 4.25 27.937 4.71322 28.8461C5.12068 29.6458 5.77085 30.296 6.57054 30.7034C7.47967 31.1666 8.66978 31.1666 11.05 31.1666Z" stroke="white" stroke-width="2" stroke-linecap="round" stroke-linejoin="round"/>
</svg>
