<svg width="34" height="34" viewBox="0 0 34 34" fill="none" xmlns="http://www.w3.org/2000/svg">
<path d="M10.625 15.5833H6.51668C5.72327 15.5833 5.32657 15.5833 5.02352 15.7377C4.75696 15.8736 4.54024 16.0903 4.40442 16.3568C4.25001 16.6599 4.25001 17.0566 4.25001 17.85V29.75M23.375 15.5833H27.4833C28.2767 15.5833 28.6735 15.5833 28.9765 15.7377C29.2431 15.8736 29.4598 16.0903 29.5956 16.3568C29.75 16.6599 29.75 17.0566 29.75 17.85V29.75M23.375 29.75V8.78333C23.375 7.19652 23.375 6.40311 23.0662 5.79703C22.7946 5.2639 22.3611 4.83046 21.828 4.55881C21.2219 4.25 20.4285 4.25 18.8417 4.25H15.1583C13.5715 4.25 12.7781 4.25 12.172 4.55881C11.6389 4.83046 11.2055 5.2639 10.9338 5.79703C10.625 6.40311 10.625 7.19652 10.625 8.78333V29.75M31.1667 29.75H2.83334M15.5833 9.91667H18.4167M15.5833 15.5833H18.4167M15.5833 21.25H18.4167" stroke="white" stroke-width="2" stroke-linecap="round" stroke-linejoin="round"/>
</svg>
