<svg width="238" height="238" viewBox="0 0 238 238" fill="none" xmlns="http://www.w3.org/2000/svg">
<mask id="mask0_1_3" style="mask-type:luminance" maskUnits="userSpaceOnUse" x="0" y="0" width="238" height="238">
<path d="M237.102 136.317L135.906 0.645462L0.623511 101.551L101.82 237.223L237.102 136.317Z" fill="white"/>
</mask>
<g mask="url(#mask0_1_3)">
<g filter="url(#filter0_d_1_3)">
<path d="M168.977 127.024L125.552 68.8045L67.3325 112.23L110.758 170.449L168.977 127.024Z" fill="#2E2D75"/>
<path d="M220.577 139.806L217.273 135.376L210.143 140.694L204.54 133.183L213.982 126.14L222.823 137.992L227.593 134.434L218.752 122.582L223.96 118.698L220.397 113.92L215.189 117.805L155.191 37.3669L150.421 40.9247L204.979 114.07L188.318 126.498L184.711 121.663L191.42 116.659L187.856 111.881L181.148 116.885L178.134 112.845L184.843 107.841L181.285 103.072L174.577 108.076L171.563 104.036L178.272 99.0321L174.714 94.2619L168.005 99.2658L158.318 86.2786L172.636 75.5993L169.072 70.8219L149.936 85.0953L153.5 89.8727L153.54 89.8424L183.54 130.062L183.499 130.092L187.063 134.87L187.104 134.84L187.218 134.994L191.996 131.43L191.882 131.276L208.543 118.848L210.419 121.363L200.977 128.405L195.85 132.229L208.29 148.907L208.882 148.465L208.912 148.506L220.577 139.806Z" fill="#838182"/>
<path d="M147.784 72.9514L137.444 59.0882L152.143 48.1245L148.579 43.3466L129.443 57.62L131.046 59.7697L145.32 78.9055L146.911 81.0393L166.047 66.7659L162.483 61.9877L147.784 72.9514Z" fill="#838182"/>
<path d="M197.721 138.496L194.376 134.01L189.371 137.744L192.716 142.229L197.721 138.496Z" fill="#838182"/>
<path d="M180.72 86.9287L177.375 82.4431L172.369 86.1763L175.715 90.6619L180.72 86.9287Z" fill="#838182"/>
<path d="M185.258 93.0127L181.912 88.527L176.907 92.2603L180.253 96.7459L185.258 93.0127Z" fill="#838182"/>
<path d="M158.635 57.32L155.29 52.8344L150.285 56.5676L153.63 61.0532L158.635 57.32Z" fill="#838182"/>
<path d="M202.054 144.304L198.708 139.819L193.703 143.552L197.049 148.037L202.054 144.304Z" fill="#838182"/>
<path d="M206.386 150.112L203.04 145.627L198.035 149.36L201.381 153.846L206.386 150.112Z" fill="#838182"/>
<path d="M97.9259 221L102.355 217.697L97.0364 210.567L104.548 204.964L111.591 214.406L99.7392 223.246L103.297 228.016L115.149 219.176L119.033 224.384L123.811 220.82L119.927 215.612L200.365 155.614L196.807 150.844L123.662 205.402L111.234 188.741L116.077 185.128L121.081 191.837L125.85 188.279L120.846 181.571L124.886 178.558L129.89 185.266L134.659 181.709L129.656 175L133.696 171.987L138.699 178.695L143.477 175.131L138.473 168.423L151.453 158.742L162.132 173.06L166.91 169.496L152.637 150.36L147.859 153.924L147.888 153.964L107.67 183.963L107.64 183.923L102.862 187.487L102.892 187.527L102.738 187.641L106.302 192.42L106.456 192.305L118.883 208.966L116.369 210.842L109.326 201.4L109.334 201.394L105.51 196.267L88.8325 208.707L89.2743 209.299L89.2254 209.336L97.9259 221Z" fill="#838182"/>
<path d="M164.78 148.207L178.643 137.867L189.607 152.566L194.385 149.003L180.112 129.866L177.962 131.47L158.826 145.743L156.692 147.335L170.966 166.471L175.744 162.907L164.78 148.207Z" fill="#838182"/>
<path d="M103.728 194.807L99.9943 189.802L95.5079 193.149L99.2411 198.154L103.728 194.807Z" fill="#838182"/>
<path d="M155.296 177.792L151.563 172.787L147.077 176.133L150.81 181.138L155.296 177.792Z" fill="#838182"/>
<path d="M149.212 182.33L145.479 177.325L140.994 180.67L144.727 185.675L149.212 182.33Z" fill="#838182"/>
<path d="M184.897 155.713L181.164 150.708L176.678 154.054L180.411 159.059L184.897 155.713Z" fill="#838182"/>
<path d="M97.9193 199.14L94.1861 194.135L89.6997 197.481L93.4329 202.486L97.9193 199.14Z" fill="#838182"/>
<path d="M92.1111 203.472L88.3779 198.467L83.8922 201.813L87.6255 206.818L92.1111 203.472Z" fill="#838182"/>
<path d="M16.8421 97.6351L20.1458 102.064L27.2678 96.752L32.8706 104.264L23.4368 111.3L14.5969 99.4486L9.8187 103.013L18.6586 114.864L13.4508 118.749L17.0146 123.527L22.2225 119.642L82.2202 200.08L86.9984 196.516L32.4402 123.371L49.1018 110.943L52.714 115.786L45.9976 120.795L49.5553 125.565L56.2717 120.556L59.2851 124.596L52.5687 129.605L56.1262 134.375L62.8426 129.365L65.856 133.405L59.1395 138.415L62.7036 143.193L69.42 138.183L79.1004 151.161L64.7746 161.847L68.3387 166.625L87.4747 152.352L83.9107 147.574L83.8698 147.604L53.8711 107.385L53.912 107.355L50.3482 102.577L50.3074 102.608L50.1924 102.453L45.423 106.011L45.538 106.165L28.8764 118.593L27.0007 116.078L36.4344 109.042L36.4405 109.05L41.5674 105.226L29.1273 88.5474L28.5349 88.9892L28.4986 88.9406L16.8421 97.6351Z" fill="#838182"/>
<path d="M89.6265 164.496L99.9671 178.359L85.2685 189.323L88.832 194.1L107.968 179.827L106.364 177.677L92.091 158.541L90.5001 156.408L71.364 170.681L74.928 175.459L89.6265 164.496Z" fill="#838182"/>
<path d="M48.0408 99.7027L44.6948 95.2168L39.6898 98.95L43.0357 103.436L48.0408 99.7027Z" fill="#838182"/>
<path d="M65.0481 151.278L61.7023 146.793L56.6972 150.526L60.043 155.012L65.0481 151.278Z" fill="#838182"/>
<path d="M60.5101 145.194L57.1643 140.709L52.1592 144.442L55.505 148.928L60.5101 145.194Z" fill="#838182"/>
<path d="M87.127 180.879L83.7806 176.393L78.7755 180.126L82.1219 184.612L87.127 180.879Z" fill="#838182"/>
<path d="M43.7085 93.8945L40.3626 89.4086L35.3575 93.1419L38.7035 97.6277L43.7085 93.8945Z" fill="#838182"/>
<path d="M39.3763 88.0864L36.0304 83.6006L31.0253 87.3338L34.3713 91.8197L39.3763 88.0864Z" fill="#838182"/>
<path d="M140.1 16.644L135.671 19.9477L140.989 27.078L133.469 32.6869L126.427 23.2447L138.286 14.3987L134.728 9.62889L122.869 18.4749L118.984 13.267L114.215 16.8248L118.099 22.0326L37.6613 82.0305L41.219 86.8003L114.364 32.2419L126.792 48.9038L121.949 52.516L116.945 45.8074L112.176 49.3652L117.18 56.0737L113.14 59.0869L108.136 52.3783L103.358 55.9422L108.362 62.6508L104.33 65.6579L99.3264 58.9493L94.5485 62.5131L99.5523 69.2217L86.5733 78.9027L75.8939 64.5851L71.116 68.1489L85.3894 87.2849L90.1673 83.7211L90.137 83.6806L130.356 53.6816L130.386 53.7222L135.164 50.1584L135.134 50.1179L135.28 50.0089L131.716 45.231L131.57 45.34L119.142 28.6781L121.657 26.8024L128.7 36.2447L128.692 36.2507L132.516 41.3775L149.194 28.9374L148.752 28.3452L148.801 28.3089L140.1 16.644Z" fill="#838182"/>
<path d="M73.2462 89.4367L59.3829 99.7772L48.4192 85.0785L43.641 88.6425L57.9144 107.778L60.0642 106.175L79.2003 91.9015L81.3254 90.3164L67.052 71.1804L62.2825 74.7379L73.2462 89.4367Z" fill="#838182"/>
<path d="M142.524 44.5046L138.791 39.4995L134.305 42.8455L138.038 47.8506L142.524 44.5046Z" fill="#838182"/>
<path d="M90.9484 61.5119L87.2152 56.5068L82.7293 59.8528L86.4625 64.8579L90.9484 61.5119Z" fill="#838182"/>
<path d="M97.0323 56.974L93.2991 51.9689L88.8132 55.3149L92.5464 60.3199L97.0323 56.974Z" fill="#838182"/>
<path d="M61.348 83.5906L57.6148 78.5856L53.1291 81.9314L56.8624 86.9364L61.348 83.5906Z" fill="#838182"/>
<path d="M148.332 40.1723L144.599 35.1673L140.113 38.5132L143.846 43.5183L148.332 40.1723Z" fill="#838182"/>
<path d="M154.14 35.8401L150.407 30.8351L145.921 34.1811L149.654 39.1861L154.14 35.8401Z" fill="#838182"/>
<path d="M149.309 133.966L145.879 129.368L114.997 152.402L118.427 157.001L149.309 133.966Z" fill="white"/>
<path d="M88.4166 118.407L88.4805 116.971L113.538 98.2805L110.108 93.6811L110.067 93.7113L106.764 89.2826L102.164 92.7133L105.468 97.142L82.8599 114.005L82.9448 114.119L83.121 122.345L83.135 122.347L86.5656 126.946L117.635 103.772L114.204 99.1727L88.4166 118.407Z" fill="white"/>
<path d="M117.135 158.281L104.798 141.741L107.855 120.738L122.269 109.986L118.839 105.386L87.7698 128.561L91.2005 133.16L101.357 125.584L98.7868 143.245L98.7927 143.253C98.7847 143.259 98.7827 143.273 98.7887 143.281L112.542 161.72C112.554 161.736 112.568 161.738 112.584 161.726L117.134 158.332C117.139 158.303 117.141 158.289 117.135 158.281Z" fill="white"/>
<path d="M127.821 105.428L112.797 85.2863L108.198 88.717L123.222 108.859L127.821 105.428Z" fill="white"/>
<path d="M120.875 93.7299L124.306 98.3293L124.314 98.3233L150.235 133.075L154.835 129.644L128.914 94.8926L134.917 90.4151L134.892 90.3823L124.249 76.1134L119.65 79.5441L126.886 89.2464L120.875 93.7299Z" fill="white"/>
<path d="M144.616 127.961L128.273 106.051L123.673 109.482L140.016 131.392L144.616 127.961Z" fill="white"/>
<path d="M152.556 114.792L149.144 110.217L144.658 113.563L148.07 118.138L152.556 114.792Z" fill="white"/>
<path d="M125.642 115.929L122.23 111.354L117.744 114.7L121.156 119.275L125.642 115.929Z" fill="white"/>
<path d="M119.963 120.164L116.551 115.59L112.065 118.936L115.478 123.51L119.963 120.164Z" fill="white"/>
<path d="M115.47 132.353L112.058 127.779L107.572 131.125L110.984 135.699L115.47 132.353Z" fill="white"/>
<path d="M120.008 138.437L116.596 133.863L112.11 137.209L115.522 141.783L120.008 138.437Z" fill="white"/>
<path d="M113.925 142.975L110.513 138.4L106.026 141.747L109.438 146.321L113.925 142.975Z" fill="white"/>
<path d="M156.495 120.072L153.083 115.498L148.597 118.844L152.009 123.418L156.495 120.072Z" fill="white"/>
<path d="M160.434 125.353L157.021 120.779L152.536 124.125L155.948 128.699L160.434 125.353Z" fill="white"/>
</g>
</g>
<defs>
<filter id="filter0_d_1_3" x="5.8187" y="9.62889" width="225.774" height="226.387" filterUnits="userSpaceOnUse" color-interpolation-filters="sRGB">
<feFlood flood-opacity="0" result="BackgroundImageFix"/>
<feColorMatrix in="SourceAlpha" type="matrix" values="0 0 0 0 0 0 0 0 0 0 0 0 0 0 0 0 0 0 127 0" result="hardAlpha"/>
<feOffset dy="4"/>
<feGaussianBlur stdDeviation="2"/>
<feComposite in2="hardAlpha" operator="out"/>
<feColorMatrix type="matrix" values="0 0 0 0 0 0 0 0 0 0 0 0 0 0 0 0 0 0 0.25 0"/>
<feBlend mode="normal" in2="BackgroundImageFix" result="effect1_dropShadow_1_3"/>
<feBlend mode="normal" in="SourceGraphic" in2="effect1_dropShadow_1_3" result="shape"/>
</filter>
</defs>
</svg>
